<svg width="43" height="43" viewBox="0 0 43 43" fill="none" xmlns="http://www.w3.org/2000/svg">
<rect width="43" height="43" fill="#0B2F4A"/>
<path d="M24.451 29.9572L17.2135 12.4662C17.1375 12.2605 17.1584 11.9185 16.5307 11.9185C15.8269 11.9185 15.883 12.2413 15.8079 12.4479L8.68553 29.9572C8.6066 30.1417 8.73786 30.3233 8.91949 30.3233H10.542C10.7769 30.3233 10.9823 30.1936 11.0841 29.9572L16.5031 16.3491L22.0001 29.9572C22.1028 30.1936 22.3092 30.3233 22.5412 30.3233H24.2179C24.3977 30.3233 24.5289 30.1417 24.451 29.9572" fill="white"/>
<path fill-rule="evenodd" clip-rule="evenodd" d="M24.0186 11.3485C24.4057 13.1597 24.534 16.8793 22.5654 19.3469C21.0561 21.236 18.6176 21.9778 15.3679 21.5204C12.1135 21.0678 9.89754 19.8398 8.96169 17.9709C8.26649 16.593 8.30737 14.8518 9.0568 13.2558C9.8557 13.8497 11.014 13.9332 11.0701 13.9371C11.2309 13.9669 11.3517 13.8304 11.3631 13.6786C11.3726 13.5268 11.2613 13.3923 11.1111 13.3807C10.7544 13.3529 9.81194 13.1703 9.37825 12.6495C9.67402 12.1604 10.0326 11.7136 10.4187 11.3523C12.8001 9.12977 14.0308 9.09806 15.1197 9.07019C15.3042 9.06635 15.4849 9.05962 15.6694 9.04809C16.1297 9.01158 16.4597 8.84055 16.6499 8.53594C16.9676 8.02666 16.7355 7.37615 16.7079 7.30504C16.6946 7.27141 16.6756 7.24162 16.6528 7.21472C16.3361 6.87072 15.9033 6.68143 15.3651 6.65355C15.871 6.54689 16.3884 6.49308 16.9096 6.49308C20.5416 6.49308 23.5174 9.00291 24.0186 11.3484M25.2083 10.2032C24.3343 7.68088 21.3071 5 17.4173 5C15.17 5 12.9607 5.94071 11.0235 7.71931C10.3169 8.36695 9.73955 8.98 9.3116 9.53924C7.4856 11.068 6.40712 12.7841 6.1066 14.6444C5.07472 21.0103 11.8718 22.9551 11.9536 22.9772C13.6417 23.3405 15.2081 23.524 16.6061 23.524C20.105 23.524 22.6719 22.3988 24.2296 20.1782C26.4094 17.0716 26.01 12.5113 25.2083 10.2032" fill="#00BC70"/>
<path d="M31.3767 21.8848L29.8361 27.6946C29.1163 30.436 28.414 32.4228 27.7293 33.6552C27.0446 34.8876 26.2414 35.7972 25.3197 36.384C24.4067 36.9792 23.3577 37.2769 22.1726 37.2769C21.4265 37.2769 20.8778 37.1385 20.5267 36.8619C20.1756 36.5936 20 36.275 20 35.9062C20 35.5624 20.1448 35.2648 20.4345 35.0133C20.7242 34.7618 21.1061 34.6361 21.5801 34.6361C21.9751 34.6361 22.278 34.7325 22.4887 34.9253C22.6993 35.1181 22.8047 35.3612 22.8047 35.6547C22.8047 35.9229 22.7388 36.1199 22.6072 36.2457C22.4755 36.3798 22.4097 36.4679 22.4097 36.5098L22.4755 36.5978C22.5282 36.6397 22.5896 36.6607 22.6598 36.6607C22.9232 36.6607 23.147 36.581 23.3314 36.4217C23.7966 36.0277 24.1434 35.5499 24.3716 34.9882C24.5296 34.6025 24.8325 33.5839 25.2802 31.9324L27.9663 21.8848H26.1361L26.5706 20.4135C27.229 20.4219 27.7074 20.3423 28.0059 20.1746C28.3043 20.0069 28.6203 19.6297 28.9539 19.0428C29.9195 17.341 30.9378 16.1212 32.0088 15.3835C33.0797 14.6457 34.2736 14.2769 35.5903 14.2769C36.4331 14.2769 37.0432 14.4319 37.4206 14.7421C37.8069 15.0523 38 15.4547 38 15.9494C38 16.3853 37.8727 16.7332 37.6181 16.9931C37.3636 17.2446 37.0475 17.3703 36.6701 17.3703C36.3189 17.3703 36.0293 17.2656 35.801 17.056C35.5728 16.8464 35.4587 16.5949 35.4587 16.3015C35.4587 16.0919 35.5289 15.8697 35.6693 15.635C35.8186 15.4002 35.8932 15.241 35.8932 15.1571C35.8932 15.0649 35.8581 14.9894 35.7879 14.9308C35.7264 14.8721 35.643 14.8427 35.5377 14.8427C35.0198 14.8427 34.4887 15.1487 33.9444 15.7607C33.049 16.7416 32.3292 18.2925 31.7849 20.4135H33.6942L33.2334 21.8848H31.3767Z" fill="white"/>
</svg>
